<svg width="48" height="48" viewBox="0 0 48 48" fill="none" xmlns="http://www.w3.org/2000/svg">
<g>
<g>
<path d="M29.2674 26.1589C31.1772 26.1589 32.8169 26.1589 34.4585 26.1589C37.7578 26.1589 41.0553 26.1571 44.3546 26.1589C45.4616 26.1589 45.5948 26.2957 45.5966 27.4099C45.6002 29.9586 45.602 32.5073 45.5966 35.0579C45.5948 36.0947 45.4418 36.2368 44.3798 36.244C43.6292 36.2494 42.8751 36.2998 42.1317 36.2296C41.3811 36.1577 41.2515 36.4654 41.2641 37.1368C41.3037 39.2662 41.2803 41.3955 41.2785 43.5249C41.2785 44.7758 41.1759 44.8838 39.9627 44.8838C29.2566 44.8838 18.5505 44.8874 7.84433 44.8838C4.72681 44.8838 2.46067 42.8301 2.40127 39.9844C2.34007 37.0522 4.50181 34.9175 7.65174 34.8005C7.76693 34.7969 7.88033 34.7789 8.00273 34.7681C8.02073 34.4333 7.74893 34.2875 7.61214 34.0733C6.52856 32.3939 6.37557 30.639 7.30074 28.8714C8.20792 27.1399 9.70369 26.2201 11.6638 26.1751C13.642 26.1319 15.6219 26.1625 17.6019 26.1607C17.8899 26.1607 18.1797 26.1607 18.5163 26.1607C18.3741 25.7575 18.0627 25.6729 17.8431 25.5019C14.2018 22.6706 12.9202 17.8809 14.722 13.6348C14.938 13.1254 14.9002 12.8086 14.5834 12.3658C13.5214 10.8881 13.7446 8.92433 15.0496 7.70216C16.3815 6.45479 18.4245 6.3594 19.7978 7.58337C20.282 8.01536 20.6546 8.06215 21.2234 7.85516C21.7508 7.66256 22.3304 7.59417 22.892 7.50777C23.1979 7.46097 23.2861 7.31877 23.2735 7.03078C23.2609 6.71039 23.045 6.73559 22.8362 6.73019C22.5968 6.72479 22.3556 6.73919 22.1162 6.71939C21.0974 6.63479 20.3774 5.85901 20.4008 4.88163C20.4242 3.94026 21.1298 3.17528 22.1162 3.14108C23.3743 3.09788 24.6361 3.09608 25.8943 3.14108C26.8753 3.17708 27.579 3.95286 27.5916 4.89603C27.606 5.87521 26.8807 6.60239 25.8619 6.73919C25.4839 6.78959 24.8215 6.399 24.7585 7.05058C24.6901 7.77596 25.4551 7.44297 25.8313 7.61937C25.9357 7.66796 26.0743 7.64276 26.1823 7.68956C27.0607 8.06755 27.7518 8.00456 28.587 7.33137C29.8902 6.2784 31.8305 6.58979 33.0203 7.77956C34.2353 8.99273 34.4621 10.9079 33.4451 12.3046C33.0653 12.8266 33.0941 13.1902 33.3173 13.7338C35.0453 17.9151 33.7673 22.6652 30.1998 25.4533C29.964 25.6369 29.7246 25.8151 29.2692 26.1625L29.2674 26.1589ZM31.6505 27.6043C27.6942 27.6043 23.7397 27.6223 19.7834 27.5881C19.1067 27.5827 18.9249 27.7609 18.9429 28.4322C18.9897 30.3186 18.9771 32.2086 18.9483 34.0949C18.9393 34.6313 19.0671 34.8113 19.6394 34.8095C27.5808 34.7897 35.5222 34.7915 43.4636 34.8095C44.0198 34.8095 44.1746 34.6565 44.1656 34.1039C44.1332 32.2157 44.1242 30.3276 44.1692 28.4412C44.1836 27.7861 44.0306 27.5791 43.3394 27.5863C39.4443 27.6223 35.5474 27.6043 31.6523 27.6043H31.6505ZM27.192 43.4385C31.1484 43.4385 35.1029 43.4241 39.0592 43.4529C39.6999 43.4583 39.8601 43.2711 39.8475 42.6483C39.8079 40.7313 39.8169 38.8126 39.8439 36.8956C39.8511 36.3934 39.7107 36.2314 39.1923 36.2332C31.2203 36.2476 23.2501 36.2476 15.2781 36.2332C14.758 36.2332 14.623 36.397 14.6284 36.8974C14.6536 38.8144 14.6644 40.7331 14.6248 42.6501C14.6122 43.2729 14.7742 43.4565 15.4149 43.4529C19.3406 43.4223 23.2663 43.4385 27.192 43.4385ZM24.0151 26.1571C28.7796 26.1427 32.6369 22.2656 32.6297 17.5029C32.6225 12.7438 28.7454 8.88293 23.9773 8.88653C19.2254 8.89013 15.3627 12.769 15.3609 17.5407C15.3591 22.2836 19.2632 26.1733 24.0151 26.1571ZM17.5137 31.2924C17.5137 30.9936 17.5299 30.693 17.5101 30.396C17.4507 29.4834 17.9205 28.2018 17.3157 27.7555C16.6911 27.2947 15.4833 27.6223 14.5294 27.6043C14.4988 27.6043 14.47 27.6079 14.4394 27.6043C14.065 27.5611 13.9102 27.7033 13.912 28.1047C13.9264 30.1674 13.9264 32.2319 13.912 34.2947C13.9084 34.6925 14.0542 34.8131 14.4358 34.8041C15.2727 34.7843 16.1115 34.7699 16.9467 34.8077C17.4633 34.8311 17.5281 34.5863 17.5191 34.1633C17.4975 33.2075 17.5119 32.25 17.5119 31.2924H17.5137ZM13.1938 39.8368C13.1938 39.5974 13.1974 39.358 13.1938 39.1186C13.174 38.197 13.5088 36.9316 13.039 36.442C12.4486 35.8283 11.1778 36.3232 10.2059 36.2386C9.73968 36.1991 9.58669 36.3628 9.59209 36.8398C9.61549 38.8432 9.61729 40.8465 9.59209 42.8499C9.58669 43.3377 9.76128 43.4619 10.2149 43.4457C11.0213 43.4169 11.8294 43.4187 12.6358 43.4457C13.0588 43.4601 13.2136 43.3215 13.2028 42.8877C13.1776 41.8725 13.1956 40.8537 13.1956 39.8386L13.1938 39.8368ZM12.4738 31.2258C12.4738 30.207 12.4594 29.1882 12.481 28.1695C12.49 27.7555 12.3748 27.6097 11.932 27.5917C9.89268 27.5125 8.15212 29.1666 8.16292 31.2204C8.17372 33.2669 9.95748 34.9301 11.9716 34.8077C12.3658 34.7843 12.4864 34.6619 12.4792 34.2821C12.4594 33.2633 12.472 32.2445 12.4738 31.2258ZM8.15392 39.817C8.15392 38.7982 8.14132 37.7794 8.16112 36.7606C8.16832 36.3808 8.04953 36.2566 7.65534 36.2332C5.63939 36.1109 3.85563 37.7722 3.84483 39.8188C3.83403 41.8707 5.57279 43.5267 7.61214 43.4493C8.05313 43.4331 8.17012 43.2873 8.16112 42.8733C8.13952 41.8545 8.15392 40.8357 8.15392 39.817ZM15.8523 11.5883C16.6947 10.4399 17.7441 9.53992 18.9483 8.78394C17.8971 7.97216 16.8459 7.99376 16.0341 8.76954C15.2385 9.52912 15.1539 10.5173 15.8523 11.5883ZM32.1635 11.6009C32.8709 10.3805 32.6837 9.26812 31.7225 8.57514C30.8568 7.95056 29.784 8.05315 29.1198 8.84333C30.2808 9.55072 31.2707 10.4525 32.1635 11.6009ZM23.9863 5.27762C24.5263 5.27762 25.0663 5.28122 25.6063 5.27762C25.8583 5.27582 26.1157 5.23263 26.1103 4.91043C26.1067 4.65124 25.8979 4.57384 25.6693 4.57204C24.5605 4.57024 23.4499 4.57204 22.3412 4.57024C22.1126 4.57024 21.8984 4.63684 21.8822 4.89243C21.8624 5.21283 22.109 5.27582 22.3682 5.27762C22.9082 5.28122 23.4481 5.27762 23.9863 5.27942V5.27762Z" fill="#1C263B"/>
<path d="M24.0016 9.60274C28.3467 9.59734 31.907 13.1397 31.9142 17.4793C31.9214 21.8856 28.3863 25.4387 23.9926 25.4369C19.6367 25.4369 16.0944 21.909 16.08 17.5603C16.0656 13.1595 19.6007 9.60994 24.0016 9.60274ZM23.9908 23.9952C27.5403 24.0006 30.4634 21.0919 30.4724 17.5459C30.4814 13.982 27.5997 11.0643 24.0466 11.0427C20.4467 11.0211 17.5128 13.9388 17.5218 17.5333C17.529 21.0901 20.4305 23.9862 23.9908 23.9934V23.9952Z" fill="#1C263B"/>
<path d="M23.9071 19.7124C23.1313 19.2012 22.6831 19.8348 22.1755 20.3496C21.8605 20.67 21.4789 20.7222 21.1405 20.3874C20.8022 20.0544 20.8202 19.6386 21.1675 19.3614C21.8137 18.8484 22.0171 18.2743 21.8713 17.4391C21.7579 16.7947 22.1305 16.1701 22.7011 15.8461C23.2501 15.5329 23.3095 15.1189 23.2771 14.5879C23.2519 14.1704 23.2699 13.7492 23.2771 13.328C23.2843 12.8384 23.5021 12.4964 24.0187 12.5072C24.4813 12.5162 24.6973 12.8348 24.7135 13.2866C24.7207 13.526 24.7333 13.7672 24.7153 14.0066C24.6577 14.8201 24.6973 15.4987 25.5162 16.0693C26.2524 16.5841 26.3442 17.5003 25.9734 18.3607C25.6044 19.2174 24.9079 19.6152 23.9089 19.7124H23.9071ZM24.7117 17.4895C24.6433 17.1331 24.4507 16.8433 24.0367 16.8271C23.5849 16.8109 23.3059 17.0755 23.2987 17.5255C23.2915 17.9341 23.5489 18.1987 23.9521 18.2185C24.4075 18.2419 24.6433 17.9611 24.7117 17.4877V17.4895Z" fill="#1C263B"/>
</g>
</g>
</svg>
